<?xml version="1.0" encoding="utf-8"?>
<!-- Generator: Adobe Illustrator 15.1.0, SVG Export Plug-In . SVG Version: 6.00 Build 0)  -->
<!DOCTYPE svg PUBLIC "-//W3C//DTD SVG 1.1//EN" "http://www.w3.org/Graphics/SVG/1.1/DTD/svg11.dtd">
<svg version="1.1" id="Layer_1" xmlns="http://www.w3.org/2000/svg" xmlns:xlink="http://www.w3.org/1999/xlink" x="0px" y="0px"
	 width="590.237px" height="373px" viewBox="-155.761 -221.49 590.237 373" enable-background="new -155.761 -221.49 590.237 373"
	 xml:space="preserve">
<g id="Layer_1_1_">
	<g>
		<g>
			<g>
				<defs>
					<path id="SVGID_1_" d="M-152.159-34.989c0,50.822,41.204,92.021,92.028,92.021c50.819,0,92.013-41.199,92.013-92.021
						c0-50.818-41.194-92.023-92.013-92.023C-110.955-127.008-152.159-85.803-152.159-34.989"/>
				</defs>
				<clipPath id="SVGID_2_">
					<use xlink:href="#SVGID_1_"  overflow="visible"/>
				</clipPath>
				<path clip-path="url(#SVGID_2_)" d="M-152.922-33.554l56.247,3.003l-53.896,16.376l-0.541-4.418l3.256-0.587
					c-0.195-1.078-0.368-2.176-0.522-3.263l10.09-1.421c-0.147-1.015-0.284-2.102-0.394-3.123l-10.126,1.021
					c-0.117-1.125-0.212-2.252-0.284-3.367l-3.296,0.207L-152.922-33.554z M-151.75-46.126l0.247,0.02
					c0.317-2.623,1.605-4.778,3.988-4.604c1.954,0.133,3.195,1.454,3.234,3.55l0.062,0.013c0.512-0.604,0.972-0.834,1.794-1.305
					c1.296-0.74,4.879-1.985,4.879-1.985c-0.293,1.208-0.479,2.349-0.646,3.53c0,0-2.093,0.564-3.064,0.928
					c-1.186,0.427-2.292,1.127-2.464,2.035c-0.033,0.177-0.043,0.395-0.055,0.507l5.102,0.501c-0.103,1.04-0.187,2.082-0.249,3.129
					l-13.497-0.781l-0.502,4.164l56.247-2.996l-53.896-16.375L-151.75-46.126z M-147.321-47.277c-1.08-0.126-1.756,0.454-1.91,1.821
					c-0.056,0.494-0.065,0.984-0.124,1.528l3.264,0.327c0.04-0.454,0.104-0.995,0.16-1.468
					C-145.838-45.889-146.003-47.13-147.321-47.277 M-94.556-48.047l-48.402-28.787l-2.732,7.2l14.427,0.39
					c-0.522,1.091-1.024,2.205-1.503,3.313l-3.095-0.14c-0.585,1.421-1.132,2.863-1.633,4.324l2.416,1.949
					c-0.374,1.106-0.71,2.225-1.033,3.363l-10.929-9.649l-2.846,7.494L-94.556-48.047z M-143.871-66.732l4.265,3.276
					c0.345-0.967,0.71-1.915,1.089-2.875l-5.34-0.441L-143.871-66.732z M-152.478-29.123l1.258,10.554l0.109-0.024l-1.276-10.537
					L-152.478-29.123z M-152.09-46.149l-0.547,5.552l0.222,0.013l0.669-5.538L-152.09-46.149z M-145.961-69.638l-1.282,3.376
					l0.206,0.18l1.347-3.55L-145.961-69.638z M-118.974-106.149l-4.094,3.627l9.698,3.239L-118.974-106.149z M-84.542-62.545
					l-29.486-47.992l-2.371,2.102l8.098,10.894c-0.926,0.714-1.835,1.448-2.731,2.202l-9.583-3.17l6.055,6.333
					c-0.691,0.661-1.363,1.321-2.03,2.005l-9.723-9.476l-2.324,2.056L-84.542-62.545z M-123.31-102.606l-3.006,2.956l0.003,0.003
					l3.25-2.879L-123.31-102.606z M-116.405-108.444l-2.703,2.128l0.133,0.164l2.576-2.282L-116.405-108.444z M-90.425-55.892
					l-51.197-23.489l11.09-16.063L-90.425-55.892z M-127.652-81.566c1.042-1.508,0.666-3.577-0.844-4.621
					c-1.513-1.038-3.583-0.664-4.626,0.848c-1.041,1.511-0.662,3.577,0.848,4.621C-130.765-79.668-128.695-80.054-127.652-81.566
					 M-50.373,57.291h-19.52l9.762-55.468L-50.373,57.291z M-56.811,50.362c0-1.841-1.49-3.333-3.323-3.333
					c-1.841,0-3.328,1.492-3.328,3.333c0,1.842,1.486,3.323,3.328,3.323C-58.3,53.681-56.811,52.203-56.811,50.362 M-68.945,0.751
					L-91.7,52.273l7.766,1.922l3.472-12.908c0.997,0.267,2.057,0.51,3.068,0.739l-2.967,13.05l7.609,1.878L-68.945,0.751z
					 M-77.241-2.391l-34.414,44.589l9.142,4.798l4.776-9.256c-1.689-0.873-3.352-1.801-4.975-2.788l1.519-2.493
					c2.469,1.498,5.015,2.862,7.635,4.09l-5.732,12.143l4.915,2.578L-77.241-2.391z M-84.542-7.439l-44.098,35.057l7.726,6.84
					l6.854-7.834c-1.432-1.255-2.819-2.55-4.161-3.907l2.07-2.063c2.035,2.052,4.184,3.991,6.433,5.805l-8.466,10.417l4.154,3.678
					L-84.542-7.439z M-90.425-14.075l-51.197,23.488l1.698,2.456l-0.065-0.107l13.762-3.563c0.675,1.038,1.376,2.059,2.102,3.059
					l-8.129,11.718l-0.02-0.031l1.743,2.526L-90.425-14.075z M-127.953,11.696l-10.051,2.953l3.668,5.315l6.403-8.241
					L-127.953,11.696z M-94.556-21.933l-55.327,10.543l3.101,8.182c-0.395-1.221-0.57-2.473-0.57-3.764l2.624,0.047
					c0.011,0.927,0.222,2.129,0.479,2.796c0.581,1.528,1.353,1.889,2.136,1.582c0.495-0.188,0.785-0.701,0.546-2.249
					c-0.491-3.423,0.444-4.751,2.172-5.412c3.045-1.161,5.128,0.827,6.178,3.57c0.489,1.281,0.714,2.722,0.769,4.091l-2.712,0.126
					c-0.052-0.841-0.221-2.192-0.551-3.06c-0.384-1.001-0.981-1.975-2.132-1.531c-1.142,0.433-0.698,1.921-0.574,3.52
					c0.124,1.611-0.068,3.35-2.454,4.257c-2.388,0.917-4.438-0.781-5.474-2.829l3.387,8.929L-94.556-21.933z M-84.003,54.429
					l3.585,0.888l0.053-0.24l-3.573-0.881L-84.003,54.429z M-102.64,47.24l3.273,1.601l0.072-0.149l-3.222-1.691L-102.64,47.24z
					 M-121.044,34.611l2.771,2.382l0.092-0.113l-2.729-2.422L-121.044,34.611z M-138.199,14.705l0.196-0.057l-1.92-2.779
					L-138.199,14.705z M-134.468,20.13l2.19,2.813l-2.06-2.98L-134.468,20.13z M-146.658-2.742c0.088,0.228,0.202,0.457,0.313,0.678
					l-0.437-1.148C-146.731-3.059-146.72-2.898-146.658-2.742 M-23.59-112.292c-1.347,2.566-0.554,4.494,1.186,5.402
					c1.748,0.918,3.792,0.48,5.134-2.075c1.344-2.572,0.547-4.494-1.206-5.415C-20.216-115.291-22.245-114.857-23.59-112.292
					 M-16.142-116.125c3.04,2.195,3.614,5.738,2.012,8.801c-1.783,3.397-5.569,4.952-9.533,2.876
					c-3.979-2.092-4.848-6.093-3.066-9.489c1.609-3.06,4.857-4.598,8.403-3.336l-7.567-3.967l-17.134,53.664l34.419-44.596
					L-16.142-116.125z M-35.727-62.545L8.365-97.588l-7.717-6.836l-6.807,7.828c1.432,1.261,2.819,2.563,4.154,3.91l-2.066,2.056
					c-2.041-2.056-4.182-3.984-6.426-5.81l8.456-10.366l-4.199-3.727L-35.727-62.545z M-29.843-55.892l40.104-39.55L21.349-79.38
					L-29.843-55.892z M8.228-86.187c-1.517,1.044-1.894,3.113-0.854,4.621c1.039,1.512,3.12,1.896,4.626,0.848
					c1.509-1.044,1.887-3.11,0.844-4.621C11.804-86.848,9.738-87.225,8.228-86.187 M-25.716-48.047l55.32-10.54l-2.811-7.415
					L14.21-61.531c-0.339-0.961-0.728-1.975-1.125-2.936l12.411-4.955l-2.813-7.41L-25.716-48.047z M-23.59-39.419l56.243,2.996
					l-0.379-3.133l0.02,0.377l-13.833-3.256c-0.121-1.234-0.257-2.459-0.437-3.69l12.651-6.603l-0.369-3.066L-23.59-39.419z
					 M21.611-44.721l10.283,2.075l-0.781-6.443l-9.509,4.331L21.611-44.721z M-23.59-30.551l53.896,16.376l1.046-8.651
					c-0.212,1.301-0.649,2.492-1.251,3.653l-2.309-1.254c0.427-0.824,0.799-1.998,0.88-2.703c0.196-1.622-0.324-2.302-1.148-2.392
					c-0.529-0.07-1.031,0.25-1.536,1.742c-1.164,3.25-2.611,3.997-4.442,3.773c-3.229-0.384-4.155-3.13-3.806-6.039
					c0.164-1.362,0.631-2.743,1.227-3.971l2.452,1.148c-0.349,0.767-0.816,2.028-0.929,2.956c-0.127,1.061-0.057,2.202,1.176,2.349
					c1.212,0.147,1.507-1.372,2.143-2.856c0.645-1.468,1.619-2.926,4.16-2.623c2.557,0.304,3.576,2.8,3.52,5.115l1.165-9.626
					L-23.59-30.551z M-25.716-21.933L22.682,6.868l1.568-4.134l-3.025-1.345c0.457-1.018,0.901-2.065,1.314-3.11l-9.435-3.81
					c0.391-0.961,0.766-1.982,1.105-2.943l9.593,3.437c0.369-1.041,0.728-2.085,1.059-3.133l3.146,0.985l1.596-4.201L-25.716-21.933
					z M-29.843-14.075l40.104,39.544l4.49-6.5L3.92,11.135c0.598-0.834,1.211-1.742,1.775-2.596l11.142,7.411l4.513-6.536
					L-29.843-14.075z M-35.727-7.439L-6.244,40.56l3.289-2.92l-2.061-2.592c0.881-0.701,1.757-1.409,2.615-2.144l-6.585-7.763
					c0.79-0.668,1.597-1.396,2.351-2.089l6.889,7.497c0.82-0.748,1.62-1.505,2.392-2.289l2.329,2.355l3.386-2.997L-35.727-7.439z
					 M-43.028-2.391l17.134,53.658l6.991-3.667l-5.962-11.976c0.923-0.466,1.881-0.968,2.781-1.475l6.43,11.744l7.049-3.696
					L-43.028-2.391z M0.81-104.614l-2.747-2.322l-0.106,0.127l2.69,2.382L0.81-104.614z M27.021-66.085l-1.284-3.44l-0.241,0.101
					l1.298,3.42L27.021-66.085z M31.3-49.175l-0.614-3.562l-0.016,0.007l0.443,3.637L31.3-49.175z M32.085-42.609l-0.192-0.04
					l0.376,3.093L32.085-42.609z M24.362,2.781l3.75-9.933l-0.098-0.036l-3.759,9.919L24.362,2.781z M14.931,19.102l2.105-3.023
					l-0.199-0.13l-2.086,3.019L14.931,19.102z M-2.89,37.717l7.94-7.026l-0.072-0.074l-7.93,7.022L-2.89,37.717z M-18.798,47.827
					l3.253-1.722l-0.114-0.211l-3.249,1.706L-18.798,47.827z M-31.383,45.898l-2.398,7.664l5.212-1.288L-31.383,45.898z
					 M-36.194,51.727l0.164-0.04l1.44-5.426c-0.942,0.294-1.956,0.594-2.865,0.849L-36.194,51.727z M-39.714,51.777l-0.556-2.216
					c-1.79,0.407-3.334,0.728-4.931,1.001l-0.43-2.589c1.515-0.268,3.024-0.573,4.729-0.967l-0.571-2.27
					c-1.818,0.427-3.448,0.744-5.082,1.021l-0.477-2.876c2.661-0.446,5.302-1.034,7.909-1.761l1.004,3.443
					c1.418-0.394,2.822-0.835,4.216-1.309l0.502-1.926L-51.323,0.751l3.807,56.2l2.83-0.698l-0.547-3.366
					C-43.458,52.588-41.688,52.237-39.714,51.777 M-31.157,45.195l-2.048-4.599l-0.192,0.733l2.017,4.568L-31.157,45.195z
					 M-44.68,56.264l10.843-2.513l0.058-0.189l-10.905,2.691L-44.68,56.264z M-17.185-116.799c-0.382-0.197-0.762-0.336-1.141-0.473
					l2.184,1.148C-16.471-116.362-16.802-116.592-17.185-116.799 M31.443-23.235c0.026-0.227,0.036-0.46,0.042-0.689l-0.138,1.098
					C31.371-22.964,31.43-23.09,31.443-23.235 M-50.373-127.269l-9.758,55.476l-9.766-55.476H-50.373z M-56.811-120.333
					c0-1.835-1.49-3.323-3.323-3.323c-1.841,0-3.328,1.488-3.328,3.323s1.486,3.323,3.328,3.323
					C-58.3-117.009-56.811-118.497-56.811-120.333 M-37.082-124.353c1.26,0.371,2.407,0.944,3.483,1.692l-1.52,2.135
					c-0.775-0.52-1.89-1.031-2.568-1.198c-1.597-0.39-2.331,0.041-2.524,0.858c-0.126,0.514,0.132,1.051,1.537,1.728
					c3.095,1.542,3.662,3.073,3.225,4.868c-0.774,3.16-3.607,3.744-6.453,3.049c-1.333-0.327-2.649-0.964-3.808-1.698l1.445-2.292
					c0.722,0.434,1.918,1.061,2.826,1.282c1.036,0.246,2.177,0.316,2.474-0.892c0.287-1.184-1.186-1.658-2.572-2.472
					c-1.392-0.81-2.716-1.958-2.115-4.438c0.623-2.516,3.243-3.223,5.535-2.876l-9.399-2.318l-3.807,56.2l22.754-51.529
					L-37.082-124.353z M-101.93-117.277c3.527-1.251,6.767,0.291,8.375,3.35c1.78,3.39,0.919,7.387-3.052,9.479
					c-3.98,2.082-7.765,0.527-9.546-2.87c-1.606-3.06-1.03-6.599,2.009-8.798l-7.515,3.943l34.417,44.592l-17.138-53.661
					L-101.93-117.277z M-97.891-106.87c1.753-0.928,2.546-2.85,1.2-5.415c-1.35-2.559-3.383-3-5.135-2.072
					c-1.735,0.908-2.536,2.833-1.19,5.396C-101.67-106.402-99.629-105.965-97.891-106.87 M-81.232-124.837
					c1.278-0.254,2.549-0.277,3.841-0.121l-0.356,2.6c-0.932-0.097-2.148-0.033-2.832,0.137c-1.592,0.394-2.042,1.114-1.839,1.929
					c0.126,0.514,0.609,0.868,2.167,0.82c3.455-0.08,4.666,1.015,5.114,2.806c0.786,3.163-1.449,4.995-4.295,5.702
					c-1.331,0.331-2.794,0.377-4.154,0.264l0.208-2.7c0.84,0.047,2.193,0.047,3.099-0.18c1.035-0.256,2.074-0.727,1.781-1.938
					c-0.299-1.181-1.826-0.921-3.432-0.991c-1.608-0.07-3.316-0.47-3.932-2.946c-0.623-2.505,1.356-4.343,3.54-5.111l-9.382,2.31
					l22.754,51.528l-3.807-56.196L-81.232-124.837z M-37.466-124.493c-0.211-0.049-0.433-0.08-0.652-0.113l1.036,0.254
					C-37.209-124.393-37.329-124.46-37.466-124.493 M-103.088-116.799c-0.388,0.208-0.724,0.444-1.056,0.685l2.214-1.162
					C-102.312-117.143-102.694-117-103.088-116.799 M-81.669-124.78c-0.219,0.057-0.438,0.134-0.653,0.213l1.089-0.27
					C-81.379-124.81-81.522-124.817-81.669-124.78"/>
			</g>
		</g>
		<g>
			<g>
				<defs>
					<path id="SVGID_3_" d="M-152.159-34.989c0,50.822,41.204,92.021,92.028,92.021c50.819,0,92.013-41.199,92.013-92.021
						c0-50.818-41.194-92.023-92.013-92.023C-110.955-127.008-152.159-85.803-152.159-34.989"/>
				</defs>
				<clipPath id="SVGID_4_">
					<use xlink:href="#SVGID_3_"  overflow="visible"/>
				</clipPath>
				<path clip-path="url(#SVGID_4_)" d="M-47.513-22.373c-1.04,1.061-2.478,1.715-4.072,1.715h-3.351
					c-1.877,0-3.541,0.907-4.58,2.309h-1.236c-1.036-1.402-2.702-2.309-4.578-2.309h-3.345c-3.151,0-5.699-2.549-5.699-5.699
					v-22.875L-47.513-22.373z"/>
			</g>
		</g>
		<g>
			<g>
				<defs>
					<path id="SVGID_5_" d="M-152.159-34.989c0,50.822,41.204,92.021,92.028,92.021c50.819,0,92.013-41.199,92.013-92.021
						c0-50.818-41.194-92.023-92.013-92.023C-110.955-127.008-152.159-85.803-152.159-34.989"/>
				</defs>
				<clipPath id="SVGID_6_">
					<use xlink:href="#SVGID_5_"  overflow="visible"/>
				</clipPath>
				<path clip-path="url(#SVGID_6_)" d="M-44.403-26.434c0,3.964-3.223,7.176-7.186,7.176h-3.353c-1.754,0-3.265,1.072-3.91,2.593
					h-2.569c-0.645-1.518-2.151-2.593-3.915-2.593h-3.343c-3.971,0-7.185-3.209-7.185-7.176v-24.287h31.46L-44.403-26.434
					L-44.403-26.434z M-47.343-47.774h-25.583v21.34c0,2.332,1.898,4.237,4.248,4.237h3.343c2.044,0,3.85,0.854,5.153,2.213h0.089
					c1.313-1.358,3.116-2.213,5.151-2.213h3.353c2.348,0,4.246-1.912,4.246-4.237V-47.774z"/>
			</g>
		</g>
	</g>
	<g>
		<path d="M94.343-88.235h18.732v2.822h-0.513c-5.773,0-6.653,2.529-6.653,6.006v18.01c0,16.122-11.71,19.148-20.317,19.148
			c-13.023,0-21.261-5.625-21.261-16.696v-21.554c0-3.61-1.007-4.915-5.063-4.915h-1.23v-2.822h22.647v2.822h-1.232
			c-3.042,0-5.146,1.372-5.146,4.915v21.554c0,8.829,6.519,11.851,13.092,11.851c9.485,0,14.183-5.349,14.183-13.306v-17.565
			c0-5.128-1.456-7.447-5.942-7.447h-1.297V-88.235z M147.061-49.826c0,3.54,1.292,4.261,4.124,4.261v2.318h-17.074v-2.318
			c2.964-0.213,4.125-2.246,4.125-8.174v-6.29c0-5.786-1.594-8.027-4.477-8.027c-2.249,0-4.639,1.084-7.677,3.183v14.681
			c0,3.253,1.382,4.628,4.267,4.628h0.648v2.318h-18.291v-2.318h0.427c3.048,0,4.124-1.301,4.124-5.061v-14.1
			c0-1.592-0.864-2.533-3.403-3.254l-1.503-0.437v-1.739l12.356-4.184h1.375v6.426c5.271-3.469,9.907-5.642,13.375-5.642
			c5.288,0,7.604,3.77,7.604,12.438V-49.826z M174.037-43.25h-18.074v-2.319h0.798c2.964,0,4.044-1.301,4.044-5.062v-13.873
			c0-1.892-0.437-2.402-2.463-3.12l-2.379-0.874v-1.728l12.362-4.118h1.314v24.227c0,2.962,1.208,4.547,4.397,4.547L174.037-43.25
			L174.037-43.25z M170.64-85.843c0,2.896-2.755,4.918-5.708,4.918c-3.333,0-5.786-2.1-5.786-4.918c0-2.599,2.746-4.921,5.786-4.921
			C168.239-90.764,170.64-88.589,170.64-85.843 M174.838-72.751h18.364v2.316h-2.529c-1.527,0-2.161,1.368-0.934,4.043l6.422,14.404
			l5.639-12.738c1.665-3.767,0.805-5.208-4.254-5.709v-2.316h14.381v2.316c-3.764,0.356-4.694,1.298-6.072,4.327l-10.332,23.366
			h-4.34L180.41-65.95c-1.367-2.969-2.402-4.128-5.572-4.484V-72.751z M241.074-51.637c-4.054,5.702-9.903,9.182-15.469,9.182
			c-7.9,0-13.232-6.083-13.232-14.818c0-9.559,6.431-16.285,15.469-16.285c3.843,0,6.856,1.231,9.102,3.477
			c4.287,4.261,2.249,8.314,4.781,9.626v2.088h-20.037c0.58,6.005,4.628,10.553,8.896,10.553c2.673,0,5.275-1.505,8.824-5.208
			L241.074-51.637z M231.748-61.19c-0.063-5.562-2.024-8.969-5.138-8.969c-2.966,0-5.642,3.837-5.136,8.969H231.748z M265.663-43.25
			h-20.095v-2.319h0.508c2.952,0,4.032-1.301,4.032-5.062v-11.791c0-3.25-0.429-3.974-2.599-4.841l-1.941-0.797v-1.813l11.848-4.471
			h1.524v8.091h0.157c2.663-5.205,3.813-7.307,6.279-7.307c0.515,0,1.088,0.08,1.44,0.224l5.706,2.099
			c-0.854,3.033-2.015,5.636-3.457,7.657c-2.249-0.864-4.918-1.795-5.865-1.795c-1.44,0-2.676,1-4.261,3.25v11.708
			c0,3.473,1.088,4.848,4.849,4.848h1.874L265.663-43.25L265.663-43.25z M277.104-51.785h2.313c1.228,4.051,4.414,6.216,7.517,6.216
			c2.029,0,3.747-1.525,3.747-3.323c0-4.992-13.576-6.723-13.576-15.482c0-5.499,4.558-9.185,11.335-9.185
			c2.759,0,5.074,0.434,8.105,1.525l0.141,7.734h-2.322c-1.299-3.979-3.687-6.14-6.793-6.14c-1.875,0-3.317,1.158-3.317,2.739
			c0,5.933,14.244,6.156,14.244,16.063c0,5.348-3.83,9.108-9.401,9.108c-5.002,0-6.657-1.018-7.671-1.018
			c-0.428,0-0.858,0.297-1.441,0.944h-2.096L277.104-51.785z M322.521-43.25h-18.094v-2.319h0.808c2.957,0,4.048-1.301,4.048-5.062
			v-13.873c0-1.892-0.418-2.402-2.453-3.12l-2.401-0.874v-1.728l12.371-4.118h1.302v24.227c0,2.962,1.228,4.547,4.422,4.547v2.32
			H322.521z M319.118-85.843c0,2.896-2.746,4.918-5.716,4.918c-3.322,0-5.782-2.1-5.782-4.918c0-2.599,2.746-4.921,5.782-4.921
			C316.726-90.764,319.118-88.589,319.118-85.843 M338.874-51.267c0,2.673,1.216,3.824,3.318,3.824c1.73,0,3.374-1.091,5.488-3.617
			l1.015,2.031c-2.168,3.897-6.503,6.577-10.489,6.577c-4.912,0-8.175-2.759-8.175-8.962v-17.363h-3.83v-1.885
			c4.341-1.802,9.256-7.08,10.563-11.13h2.109v9.042h9.465l-1.084,3.974h-8.376v17.51L338.874-51.267L338.874-51.267z
			 M381.09-51.637c-4.041,5.702-9.905,9.182-15.491,9.182c-7.863,0-13.22-6.083-13.22-14.818c0-9.559,6.446-16.285,15.465-16.285
			c3.847,0,6.885,1.231,9.132,3.477c4.259,4.261,2.241,8.314,4.769,9.626v2.088h-20.036c0.569,6.005,4.624,10.553,8.889,10.553
			c2.695,0,5.299-1.505,8.827-5.208L381.09-51.637z M371.765-61.19c-0.074-5.562-2.035-8.969-5.118-8.969
			c-2.982,0-5.658,3.837-5.139,8.969H371.765z M403.168-43.25h-18.092v-2.319h0.801c2.978,0,4.047-1.301,4.047-5.062v-13.873
			c0-1.892-0.427-2.402-2.462-3.12l-2.386-0.874v-1.728l12.371-4.118h1.299v24.227c0,2.962,1.231,4.547,4.422,4.547V-43.25z
			 M399.765-85.843c0,2.896-2.757,4.918-5.716,4.918c-3.331,0-5.789-2.1-5.789-4.918c0-2.599,2.75-4.921,5.789-4.921
			C397.375-90.764,399.765-88.589,399.765-85.843 M419.503-51.267c0,2.673,1.222,3.824,3.322,3.824c1.728,0,3.41-1.091,5.498-3.617
			l1.005,2.031c-2.165,3.897-6.503,6.577-10.474,6.577c-4.918,0-8.178-2.759-8.178-8.962v-17.363h-3.83v-1.885
			c4.327-1.802,9.248-7.08,10.561-11.13h2.096v9.042h9.462l-1.088,3.974h-8.371v17.51L419.503-51.267L419.503-51.267z"/>
		<path d="M94.336-26.731h18.746v2.819h-0.516c-5.781,0-6.657,2.526-6.657,6.002V0.088c0,16.139-11.707,19.162-20.31,19.162
			c-13.024,0-21.265-5.625-21.265-16.696v-21.55c0-3.624-1.008-4.915-5.064-4.915h-1.229v-2.819h22.635v2.818H79.46
			c-3.058,0-5.138,1.365-5.138,4.915v21.55c0,8.822,6.494,11.858,13.074,11.858c9.482,0,14.19-5.341,14.19-13.302v-17.576
			c0-5.132-1.453-7.447-5.942-7.447h-1.308V-26.731z M124.563,10.23c0,2.673,1.218,3.818,3.323,3.818
			c1.728,0,3.393-1.078,5.493-3.61l1.014,2.021c-2.168,3.907-6.507,6.586-10.491,6.586c-4.907,0-8.184-2.762-8.184-8.968V-7.269
			h-3.82V-9.17c4.338-1.795,9.271-7.077,10.563-11.128h2.104v9.042h9.462l-1.081,3.984h-8.381V10.23H124.563z M157.832,18.245
			h-20.113v-2.309h0.505c2.973,0,4.051-1.301,4.051-5.059v-11.79c0-3.247-0.428-3.984-2.595-4.848l-1.961-0.798v-1.802l11.859-4.479
			h1.524v8.087h0.146c2.669-5.202,3.83-7.3,6.293-7.3c0.494,0,1.088,0.077,1.438,0.217l5.712,2.099
			c-0.864,3.046-2.019,5.632-3.449,7.66c-2.263-0.871-4.932-1.805-5.882-1.805c-1.442,0-2.656,1.021-4.258,3.25v11.728
			c0,3.477,1.088,4.845,4.852,4.845h1.878V18.245z M196.148,9.857c-4.034,5.703-9.898,9.186-15.472,9.186
			c-7.884,0-13.232-6.076-13.232-14.831c0-9.546,6.45-16.269,15.468-16.269c3.848,0,6.887,1.231,9.119,3.474
			c4.271,4.261,2.248,8.318,4.78,9.615v2.099h-20.035c0.578,6.003,4.621,10.554,8.899,10.554c2.662,0,5.271-1.508,8.827-5.211
			L196.148,9.857z M186.83,0.318c-0.07-5.572-2.022-8.965-5.146-8.965c-2.955,0-5.624,3.821-5.131,8.965H186.83z M231.085,11.302
			c-3.327,5.061-8.395,7.743-14.751,7.743c-8.818,0-15.193-6.015-15.193-14.327c0-9.469,8.184-16.769,18.729-16.769
			c6.224,0,10.929,2.603,10.929,6.146c0,2.166-1.442,3.626-3.698,3.626c-5.052,0-6.125-6.442-10.326-6.442
			c-3.621,0-6.093,4.407-6.093,10.91c0,7.814,3.703,13.09,9.05,13.09c3.259,0,6.288-1.652,9.254-5.131L231.085,11.302z
			 M246.773,10.952c0,4.551,1.233,4.988,3.76,4.988h0.721v2.309h-18.308V15.94h1.034c3.693,0,3.975-1.455,3.975-5.285v-31.601
			c0-2.088-0.371-2.605-2.319-3.252l-2.096-0.72v-1.669l11.498-3.54h1.735v23.568c4.054-2.819,9.247-5.492,13.009-5.492
			c5.301,0,7.896,4.257,7.896,12.795V10.3c0,4.271,0.501,5.639,3.257,5.639h0.707v2.309h-17.063v-2.309h0.58
			c3.037,0,3.69-1.171,3.69-5.285V-0.262c0-3.897-1.806-6.362-4.697-6.362c-1.959,0-4.845,1.077-7.38,2.746v14.83H246.773z
			 M287.418,10.23c0,2.673,1.229,3.818,3.323,3.818c1.741,0,3.389-1.078,5.499-3.61l1.014,2.021
			c-2.175,3.907-6.513,6.586-10.489,6.586c-4.916,0-8.175-2.762-8.175-8.968V-7.269h-3.824V-9.17
			c4.341-1.795,9.255-7.077,10.543-11.128h2.109v9.042h9.462l-1.068,3.984h-8.394V10.23z"/>
	</g>
</g>
<g id="Layer_3">
	<rect x="-155.761" y="-221.49" fill="none" width="590.237" height="373"/>
</g>
</svg>
