<?xml version="1.0" encoding="utf-8"?>
<!-- Generator: Adobe Illustrator 15.1.0, SVG Export Plug-In . SVG Version: 6.00 Build 0)  -->
<!DOCTYPE svg PUBLIC "-//W3C//DTD SVG 1.1//EN" "http://www.w3.org/Graphics/SVG/1.1/DTD/svg11.dtd">
<svg version="1.1" id="Layer_1" xmlns="http://www.w3.org/2000/svg" xmlns:xlink="http://www.w3.org/1999/xlink" x="0px" y="0px"
	 width="783.684px" height="783.764px" viewBox="816.248 816.234 783.684 783.764"
	 enable-background="new 816.248 816.234 783.684 783.764" xml:space="preserve">
<g>
	<path d="M1105.152,1094.404h3.018l2.742-0.234c0.822-0.119,1.566-0.276,2.271-0.513c1.176-0.429,2.195-0.98,3.018-1.646
		c0.824-0.665,1.488-1.371,1.998-2.115c0.512-0.78,0.861-1.565,1.137-2.389c0.275-0.746,0.512-1.449,0.627-2.115l0.117-1.766
		c-0.039-1.213-0.273-2.312-0.744-3.253c-0.393-0.979-0.939-1.841-1.646-2.507c-0.705-0.627-1.49-1.098-2.391-1.374
		c-0.586-0.232-1.252-0.39-2-0.509l-2.623-0.119h-2.742h-0.668v0.003h-8.66l-4.387,18.536h10.541L1105.152,1094.404
		L1105.152,1094.404z"/>
	<path d="M1052.763,1200.633c0.549-0.784,0.938-1.568,1.252-2.392c0.234-0.822,0.432-1.569,0.51-2.234l0.117-1.646
		c0-1.252-0.195-2.39-0.627-3.368c-0.43-0.94-1.018-1.727-1.762-2.393c-0.705-0.664-1.527-1.175-2.391-1.487
		c-0.588-0.195-1.254-0.313-1.998-0.396l-2.51-0.113h-2.742h-0.625l0,0h-8.779l-4.27,18.531h10.539h0.234h3.133l2.746-0.232
		c0.822-0.118,1.566-0.276,2.271-0.511c1.176-0.433,2.193-0.979,3.018-1.645C1051.664,1202.083,1052.292,1201.375,1052.763,1200.633
		z"/>
	<polygon points="959.386,1216.069 975.687,1216.069 973.687,1188.993 	"/>
	<path d="M816.248,816.234v783.764h783.684V816.234H816.248z M1475.167,955.104l7.014-0.118l0.117,0.235l-13.518,62.496
		l-7.016,0.119l-0.271-0.077L1475.167,955.104z M1400.601,955.104l7.016-0.118l0.115,0.235l-13.52,62.496l-7.012,0.119l-0.277-0.077
		L1400.601,955.104z M1363.22,955.104l7.014-0.118l0.234,0.235l-13.52,62.496l-7.131,0.119l-0.117-0.077L1363.22,955.104z
		 M1326.072,955.104l7.014-0.118l0.117,0.235l-13.52,62.496l-7.133,0.119l-0.154-0.077L1326.072,955.104z M1315.257,1065.604
		l0.119,0.233l-5.645,24.413h26.959l5.76-24.413l11.912-0.233l0.232,0.232l-14.537,62.656l-12.027,0.119l-0.119-0.237l6.389-27.819
		h-26.959l-6.504,27.938l-11.912,0.119l-0.234-0.237l14.537-62.656L1315.257,1065.604z M1333.164,1287.348l-13.52,62.656
		l-7.014,0.114h-0.115l-0.119-0.233l13.678-62.5l6.973-0.155L1333.164,1287.348z M1288.689,955.104l7.016-0.118l0.234,0.235
		l-13.52,62.496l-7.131,0.119l-0.119-0.077L1288.689,955.104z M1251.503,955.104l7.014-0.118l0.119,0.235l-13.557,62.538
		l-7.135,0.115l-0.115-0.115L1251.503,955.104z M1214.162,955.104l7.014-0.118l0.234,0.235l-13.52,62.496l-7.131,0.119l-0.273-0.077
		L1214.162,955.104z M1176.937,955.104l7.016-0.118l0.117,0.235l-13.52,62.496l-7.133,0.119l-0.156-0.077L1176.937,955.104z
		 M1159.619,1065.877l42.867-0.114l0.234,0.233l-2.393,10.147l-31.189,0.118l-3.369,14.418h29.467l0.234,0.237l-2.391,10.029
		l-29.701,0.119l-3.881,17.162h35.58l0.119,0.118l-2.273,10.147l-47.729,0.119l-0.115-0.237L1159.619,1065.877z M1092.73,955.104
		l0.117-0.118h46.236l0.119,0.118l-2.393,10.267l-16.299,0.115l-12.146,52.231l-12.029,0.119l-0.232-0.119l12.145-52.231h-17.789
		l-0.232-0.115L1092.73,955.104z M1019.693,1076.262l-0.119-0.235l2.391-10.265l0.117-0.116h46.236l0.119,0.232l-2.391,10.268
		l-16.301,0.117l-12.148,52.232l-12.027,0.118l-0.236-0.236l12.148-52.114L1019.693,1076.262L1019.693,1076.262z M1028.939,955.104
		l42.865-0.118l0.236,0.235l-2.391,10.148l-31.189,0.115l-3.371,14.537h29.465l0.119,0.117l-2.271,10.033l-29.703,0.115
		l-3.877,17.162h35.576l0.119,0.274l-2.273,10.033l-47.729,0.115l-0.115-0.115L1028.939,955.104z M1072.277,1287.348l-13.521,62.656
		l-7.131,0.114l-0.234-0.272l13.678-62.499l6.973-0.117L1072.277,1287.348z M946.886,1460.737l-7.131,0.115l-0.117-0.234l13.52-62.5
		l7.014-0.156l0.234,0.118L946.886,1460.737z M946.886,1350.004l-7.131,0.114l-0.117-0.233l13.52-62.5l7.014-0.155l0.234,0.117
		L946.886,1350.004z M953.783,1226.298l-6.896,12.891l-13.049,0.157l-0.117-0.237l35.971-62.65l13.283-0.118l0.236,0.233l6.777,62.5
		l-0.234,0.235h-11.797l-1.488-13.011H953.783L953.783,1226.298z M984.113,1460.737l-7.016,0.115l-0.234-0.234l13.676-62.5
		l7.012-0.115l0.08,0.077L984.113,1460.737z M984.113,1350.004l-7.016,0.114h-0.156l-0.115-0.233l13.674-62.5l7.014-0.155
		l0.117,0.117L984.113,1350.004z M993.322,1104.828l-1.49,5.877c-0.51,1.765-1.059,3.33-1.646,4.78
		c-0.545,1.412-1.213,2.705-1.996,3.881c-0.783,1.174-1.764,2.311-2.9,3.371c-1.293,1.174-2.623,2.191-3.996,3.015
		c-1.373,0.861-2.742,1.569-4.154,2.115c-1.369,0.548-2.703,0.941-3.996,1.256c-1.254,0.271-2.428,0.509-3.525,0.623l-2.898,0.237
		h-1.764h-0.158h-0.234l-2.74-0.119c-1.215-0.118-2.547-0.313-3.998-0.627c-1.488-0.272-2.979-0.665-4.504-1.252
		c-1.57-0.665-3.059-1.53-4.51-2.625c-0.938-0.707-1.84-1.492-2.625-2.393c-0.822-0.859-1.527-1.802-2.115-2.899
		c-0.588-1.099-1.059-2.312-1.371-3.644s-0.51-2.744-0.51-4.271c0-0.979,0.078-2.039,0.234-3.133l0.627-3.647l0.861-4.15
		l8.27-35.463l11.871-0.042l0.119,0.237l-8.035,35.187l-1.018,4.271l-0.627,2.9l-0.117,2.115c0.039,1.293,0.232,2.431,0.625,3.371
		c0.354,0.899,0.863,1.646,1.488,2.272c0.629,0.666,1.334,1.214,2.117,1.646c0.822,0.43,1.646,0.742,2.508,1.02l2.391,0.39
		l2.115,0.119c1.605-0.038,3.057-0.194,4.271-0.509c1.254-0.276,2.313-0.666,3.252-1.137c0.979-0.511,1.805-1.058,2.508-1.646
		c0.785-0.666,1.449-1.371,2-2.117c0.588-0.782,1.098-1.684,1.488-2.624c0.393-0.94,0.705-1.998,1.02-3.134l1.02-3.88l8.896-38.323
		l12.027-0.114l0.117,0.233L993.322,1104.828z M989.324,1017.761l-12.031,0.115l-0.117-0.115l6.506-27.94h-27.076l-6.387,27.94
		l-12.031,0.115l-0.234-0.115l14.537-62.656l12.031-0.117l0.234,0.117l-5.762,24.41h27.078l5.641-24.41l12.029-0.117l0.119,0.117
		L989.324,1017.761z M1021.453,1460.737l-7.131,0.115l-0.117-0.234l13.52-62.5l7.131-0.115l0.119,0.077L1021.453,1460.737z
		 M1014.166,1349.885l13.52-62.5l7.133-0.155l0.115,0.118l-13.518,62.656l-7.133,0.114L1014.166,1349.885z M1039.519,1214.701
		h-12.813l-5.645,24.564l-12.029,0.118l-0.115-0.232l14.537-62.5l18.926-0.118h0.508h4.154l3.879,0.118l3.137,0.509
		c0.9,0.118,1.84,0.353,2.701,0.705c1.527,0.509,2.898,1.216,4.154,2.114c1.254,0.904,2.391,1.961,3.369,3.254
		c0.939,1.332,1.645,2.819,2.115,4.508c0.471,1.684,0.746,3.522,0.746,5.523c0.037,1.998-0.158,3.92-0.629,5.762
		c-0.51,1.84-1.215,3.522-2.115,5.131c-0.939,1.568-2.076,3.02-3.369,4.271c-1.332,1.257-2.861,2.316-4.506,3.139
		c-1.566,0.822-3.291,1.407-5.133,1.761l8.15,25.826l-0.119,0.232h-12.264L1039.519,1214.701z M1058.796,1460.737l-7.133,0.115
		l-0.273-0.273l13.678-62.499l7.012-0.119l0.234,0.119L1058.796,1460.737z M1074.431,1128.375l14.42-62.499l19.043-0.115h0.354
		v-0.041l0,0h4.154l3.762,0.237l3.135,0.39c0.98,0.195,1.961,0.434,2.898,0.747c3.059,1.056,5.486,2.896,7.406,5.524
		c0.98,1.29,1.725,2.74,2.273,4.385c0.469,1.688,0.744,3.49,0.744,5.526c0,2.001-0.275,3.918-0.744,5.762
		c-0.51,1.842-1.215,3.525-2.117,5.133c-0.941,1.568-2.074,3.016-3.367,4.271c-1.295,1.255-2.746,2.311-4.391,3.134
		c-1.607,0.823-3.369,1.412-5.25,1.764l8.268,25.822l-0.234,0.237h-12.266l-7.521-24.571h-12.893l-5.643,24.414l-11.912,0.118
		L1074.431,1128.375z M1095.982,1460.737l-7.133,0.115l-0.117-0.234l13.676-62.5l7.016-0.115l0.078,0.077L1095.982,1460.737z
		 M1095.982,1350.004l-7.133,0.114l-0.117-0.233l13.676-62.5l6.975-0.155l0.119,0.117L1095.982,1350.004z M1117.455,1240.052
		c-2.234,0.471-4.506,0.704-6.779,0.745h-0.117c-1.486,0-3.057-0.118-4.779-0.394c-1.805-0.234-3.686-0.705-5.645-1.37
		c-1.959-0.666-3.918-1.646-5.758-2.863c-1.844-1.213-3.529-2.82-5.018-4.741c-1.488-1.959-2.662-4.347-3.525-7.129
		c-0.43-1.412-0.785-2.98-1.02-4.626c-0.234-1.645-0.354-3.41-0.393-5.25c0-1.37,0.117-2.819,0.236-4.271
		c0.115-1.45,0.271-2.901,0.508-4.391c0.273-1.449,0.588-2.938,1.018-4.389c0.395-1.488,0.863-2.939,1.373-4.389
		c0.549-1.451,1.176-2.859,1.881-4.271c0.705-1.408,1.527-2.782,2.389-4.113c1.766-2.587,3.92-4.897,6.389-6.896
		c1.215-0.979,2.586-1.845,3.998-2.626c1.41-0.822,2.898-1.53,4.506-2.115c1.645-0.551,3.408-0.979,5.25-1.256
		c1.842-0.313,3.762-0.471,5.76-0.509c2.271,0,4.352,0.156,6.152,0.509c1.803,0.353,3.369,0.824,4.781,1.37
		c1.369,0.513,2.508,1.06,3.525,1.646c0.98,0.589,1.842,1.18,2.508,1.765c1.646,1.374,2.938,2.862,3.879,4.389
		c0.941,1.531,1.646,3.021,2.115,4.508c0.473,1.45,0.824,2.783,1.02,3.995l0.275,3.021l-11.639,2.271l-0.117-0.236v-1.018
		l-0.154-1.137l-0.119-1.369c-0.273-1.569-0.744-2.9-1.369-4c-0.59-1.056-1.293-1.959-2.117-2.624
		c-0.863-0.746-1.764-1.332-2.744-1.765c-1.018-0.354-1.996-0.627-3.018-0.742c-0.938-0.156-1.801-0.237-2.623-0.237
		c-2.117,0.038-4.035,0.354-5.762,0.865c-1.725,0.509-3.291,1.252-4.623,2.27c-2.703,2.04-4.82,4.507-6.387,7.526
		c-0.785,1.489-1.451,2.979-2,4.504c-0.549,1.488-0.939,3.021-1.254,4.507c-0.666,3.017-0.98,5.564-1.021,7.644
		c0,2.35,0.275,4.427,0.746,6.269c0.471,1.84,1.137,3.409,2,4.779c0.898,1.373,1.918,2.468,3.133,3.371
		c1.176,0.86,2.469,1.487,3.881,1.879c1.41,0.471,2.939,0.708,4.504,0.745c1.92-0.037,3.605-0.275,5.135-0.745
		c1.488-0.471,2.859-1.095,3.996-1.879c1.174-0.785,2.232-1.685,3.135-2.625c0.861-0.941,1.645-1.921,2.271-2.9
		c0.666-0.94,1.176-1.803,1.646-2.624l1.02-2.273h0.236l10.264,4.271c-0.979,3.019-2.232,5.603-3.762,7.761
		c-1.527,2.153-3.252,3.994-5.133,5.524c-1.881,1.488-3.879,2.702-5.994,3.644
		C1121.962,1238.995,1119.767,1239.661,1117.455,1240.052z M1133.326,1460.737l-7.135,0.115l-0.234-0.234l13.678-62.5l6.973-0.156
		l0.236,0.118L1133.326,1460.737z M1133.326,1350.004l-7.135,0.114l-0.271-0.271l13.674-62.5l7.014-0.117l0.234,0.117
		L1133.326,1350.004z M1170.55,1460.737l-7.133,0.115l-0.117-0.234l13.676-62.5l6.977-0.156l0.115,0.118L1170.55,1460.737z
		 M1170.55,1350.004l-7.133,0.114l-0.117-0.233l13.676-62.5l6.977-0.155l0.115,0.117L1170.55,1350.004z M1193.591,1239.109
		l6.387-27.819h-26.959l-6.506,27.938l-12.027,0.118l-0.119-0.236l14.541-62.651l12.027-0.118l0.115,0.233l-5.643,24.449h26.959
		l5.645-24.564l12.029-0.118l0.234,0.233l-14.537,62.654l-12.031,0.119L1193.591,1239.109z M1214.201,1287.385l6.975-0.155
		l0.234,0.118l-13.52,62.656l-7.131,0.114l-0.234-0.233L1214.201,1287.385z M1207.892,1460.737l-7.131,0.115l-0.234-0.234
		l13.676-62.5l7.014-0.115l0.195,0.077L1207.892,1460.737z M1230.814,1239.109l14.537-62.495l12.029-0.156l0.236,0.113
		l-14.537,62.656l-12.031,0.117L1230.814,1239.109z M1251.503,1287.385l6.977-0.155l0.117,0.118l-13.518,62.656l-7.135,0.114
		l-0.115-0.233L1251.503,1287.385z M1245.117,1460.737l-7.131,0.115l-0.119-0.234l13.678-62.5l7.014-0.115l0.078,0.077
		L1245.117,1460.737z M1264.513,1123.717c-1.881,1.488-3.879,2.701-6.033,3.645c-2.156,0.979-4.35,1.684-6.621,2.114
		c-2.236,0.43-4.51,0.629-6.779,0.629c-1.529,0-3.135-0.119-4.898-0.396c-1.803-0.233-3.684-0.704-5.643-1.37
		c-1.959-0.665-3.881-1.645-5.762-2.861c-1.844-1.214-3.525-2.82-5.016-4.779c-1.488-1.96-2.627-4.352-3.527-7.133
		c-0.432-1.371-0.781-2.858-1.018-4.505c-0.234-1.688-0.352-3.489-0.393-5.406c0-1.374,0.117-2.824,0.234-4.274l0.51-4.386
		c0.547-2.938,1.371-5.878,2.508-8.778c1.096-2.9,2.508-5.683,4.271-8.27c1.723-2.625,3.801-4.975,6.27-7.015
		c1.215-0.979,2.586-1.841,3.996-2.625c1.41-0.785,2.898-1.45,4.506-1.998c1.609-0.665,3.369-1.137,5.213-1.451
		c1.803-0.313,3.762-0.47,5.762-0.509c2.271,0.038,4.309,0.276,6.152,0.628c1.801,0.313,3.369,0.742,4.74,1.251
		c1.371,0.514,2.508,1.062,3.525,1.649c0.98,0.666,1.844,1.29,2.51,1.879c1.645,1.332,2.938,2.781,3.877,4.271
		c0.941,1.53,1.646,3.021,2.115,4.509c0.471,1.489,0.824,2.857,1.02,4.152l0.236,3.02l-11.521,2.271l-0.234-0.235v-1.019
		l-0.117-1.137l-0.117-1.37c-0.275-1.529-0.744-2.824-1.373-3.88c-0.586-1.099-1.293-2.04-2.115-2.744
		c-0.859-0.705-1.762-1.256-2.74-1.646c-0.98-0.392-2-0.704-3.02-0.861c-0.939-0.156-1.803-0.236-2.625-0.236
		c-2.117,0.038-4.035,0.354-5.76,0.865c-1.725,0.51-3.291,1.251-4.623,2.27c-1.332,1.021-2.547,2.115-3.645,3.371
		c-1.059,1.256-2,2.625-2.744,4.155c-0.785,1.488-1.449,3.016-1.998,4.505c-0.549,1.487-0.939,3.019-1.256,4.508
		c-0.627,3.014-0.9,5.563-0.859,7.642c-0.041,2.349,0.193,4.428,0.625,6.269c0.508,1.841,1.215,3.408,2.115,4.74
		c0.863,1.37,1.844,2.469,3.018,3.372c1.176,0.899,2.467,1.564,3.881,1.998c1.41,0.429,2.938,0.626,4.504,0.626
		c1.92-0.042,3.605-0.275,5.135-0.745c1.525-0.47,2.938-1.099,4.111-1.879c1.137-0.746,2.156-1.605,3.018-2.51
		c0.863-0.941,1.646-1.921,2.273-2.9c0.627-0.979,1.174-1.88,1.646-2.741l1.02-2.114l10.541,4.151
		c-0.434,1.568-0.98,2.979-1.645,4.271c-0.668,1.255-1.373,2.43-2.117,3.49C1268.119,1120.346,1266.394,1122.187,1264.513,1123.717z
		 M1268.236,1239.109l14.535-62.495l42.871-0.118l0.273,0.231l-2.391,10.148l-31.189,0.119l-3.371,14.419h29.428l0.115,0.235
		l-2.271,10.03l-29.701,0.117l-3.879,17.044h35.461l0.234,0.237l-2.391,10.147l-47.607,0.118L1268.236,1239.109z M1282.46,1460.737
		l-7.133,0.115l-0.115-0.234l13.516-62.5l7.016-0.115l0.234,0.077L1282.46,1460.737z M1282.46,1350.004l-7.133,0.114l-0.115-0.233
		l13.516-62.5l7.016-0.119l0.234,0.081L1282.46,1350.004z M1319.646,1460.737l-7.131,0.115l-0.119-0.234l13.678-62.5l7.014-0.115
		l0.078,0.077L1319.646,1460.737z M1356.99,1460.737l-7.135,0.115l-0.115-0.234l13.518-62.5l7.014-0.115l0.234,0.077
		L1356.99,1460.737z M1356.99,1350.004l-7.135,0.114l-0.115-0.233l13.518-62.5l7.014-0.155l0.234,0.117L1356.99,1350.004z
		 M1384.261,1213.563l-29.076,0.232l-5.877,25.432l-11.91,0.118l-0.117-0.236l14.42-62.495l42.982-0.118l0.119,0.233l-2.352,10.267
		l-30.955,0.118l-3.762,16.302h28.682l0.117,0.233L1384.261,1213.563z M1394.214,1460.737l-7.014,0.115l-0.234-0.234l13.674-62.5
		l7.014-0.115l0.08,0.077L1394.214,1460.737z M1394.214,1350.004l-7.014,0.114l-0.119-0.114l13.52-62.656l7.016-0.118l0.117,0.118
		L1394.214,1350.004z M1418.468,1076.104l-16.301,0.118l-12.029,52.232l-12.145,0.114l-0.236-0.234l12.146-52.113h-17.787
		l-0.119-0.119l2.391-10.266l46.354-0.232l0.119,0.232L1418.468,1076.104z M1437.787,955.104l7.133-0.118l0.115,0.235l-13.52,62.496
		l-7.131,0.119l-0.117-0.077L1437.787,955.104z M1431.556,1460.737l-7.131,0.115l-0.119-0.234l13.521-62.5l7.131-0.115l0.117,0.077
		L1431.556,1460.737z M1431.556,1350.004l-7.131,0.114l-0.119-0.233l13.521-62.5l7.131-0.119l0.117,0.081L1431.556,1350.004z
		 M1431.556,1239.228l-7.131,0.118l-0.119-0.235l13.521-62.495l7.131-0.118l0.117,0.232L1431.556,1239.228z M1468.781,1460.737
		l-7.016,0.115l-0.232-0.234l13.676-62.5l6.973-0.156l0.119,0.118L1468.781,1460.737z M1468.781,1350.004l-7.016,0.114h-0.115
		l-0.117-0.233l13.676-62.5l7.014-0.119l0.078,0.081L1468.781,1350.004z M1468.781,1239.228l-7.016,0.118l-0.232-0.235
		l13.676-62.495l7.014-0.118l0.078,0.232L1468.781,1239.228z M1472.148,1083.236l-0.234-0.118c-0.586-1.646-1.449-3.06-2.625-4.271
		c-1.174-1.255-2.625-2.195-4.391-2.899c-1.725-0.665-3.762-0.979-6.033-1.02c-1.84,0.077-3.447,0.354-4.779,0.744
		c-1.369,0.433-2.506,0.979-3.367,1.688c-1.607,1.445-2.43,2.938-2.393,4.503c0,1.098,0.234,1.997,0.627,2.743
		c0.432,0.704,0.979,1.293,1.646,1.765c0.666,0.509,1.334,0.94,1.998,1.252l1.762,0.746l8.662,3.02
		c1.098,0.391,2.469,0.979,4.113,1.761c1.686,0.784,3.41,1.804,5.135,3.138c1.725,1.331,3.211,2.978,4.387,5.013
		c1.137,2.039,1.727,4.507,1.766,7.408c0,2.35-0.432,4.542-1.254,6.62c-0.822,2.114-2,4.036-3.527,5.759
		c-1.568,1.765-3.369,3.333-5.523,4.627c-2.115,1.251-4.428,2.191-7.014,2.9c-2.588,0.703-5.328,1.093-8.268,1.132
		c-2.117-0.038-4.232-0.233-6.271-0.622c-2.037-0.396-3.959-0.904-5.762-1.646c-1.803-0.746-3.447-1.606-4.896-2.63
		c-1.254-0.86-2.354-1.802-3.252-2.739c-0.902-1.021-1.646-2.001-2.271-3.02c-0.629-1.018-1.137-1.959-1.49-2.9l-0.861-2.507
		l-0.395-1.764l11.17-4.39l0.234,0.118c0.352,2.077,0.979,3.8,1.881,5.25c0.979,1.412,2.115,2.549,3.525,3.371
		c1.332,0.899,2.781,1.569,4.389,1.998c1.604,0.353,3.291,0.551,5.014,0.509c2.039,0,3.805-0.271,5.252-0.742
		c1.412-0.51,2.586-1.175,3.527-2.002c0.938-0.821,1.645-1.722,2.113-2.739c0.471-1.021,0.748-2.077,0.748-3.138
		c0-1.214-0.277-2.27-0.748-3.134c-0.51-0.823-1.174-1.564-1.996-2.116c-0.822-0.586-1.766-1.095-2.744-1.488l-3.018-1.251
		l-6.779-2.274c-1.059-0.354-2.428-0.902-3.996-1.645c-1.646-0.746-3.25-1.765-4.898-3.021c-1.645-1.255-3.018-2.819-4.15-4.741
		c-1.1-1.921-1.688-4.271-1.766-7.014c0.037-1.921,0.393-3.8,1.137-5.645c0.666-1.842,1.684-3.523,3.018-5.133
		c1.332-1.606,2.939-3.016,4.898-4.271c1.918-1.175,4.152-2.116,6.621-2.744c1.215-0.353,2.508-0.59,3.879-0.742
		c1.41-0.157,2.859-0.237,4.389-0.237c5.643,0,10.424,1.138,14.42,3.371c3.957,2.273,6.857,5.525,8.66,9.641L1472.148,1083.236z"/>
</g>
</svg>
